# xmcd
#
# Track frame offsets: 
#        182
#        13515
#        30030
#        45187
#        61367
#        79847
#        97852
#        114392
#        130292
#        154007
#
# Disc length: 2304 seconds
#
# Revision: 4
# Processed by: cddbd v1.5PL3 Copyright (c) Steve Scherf et al.
# Submitted via: ExactAudioCopy v0.90b4
#
DISCID=6408fe0a
DTITLE=Tracy Lawrence - Live
DYEAR=1995
DGENRE=Country
TTITLE0=Renegades, Rebels And Rogues
TTITLE1=Runnin' Behind
TTITLE2=Somebody Paints The Wall
TTITLE3=I See It Now
TTITLE4=Today's Lonely Fool
TTITLE5=I Threw The Rest Away (Acoustic)
TTITLE6=Sticks And Stones (Acoustic)
TTITLE7=Alibis (Acoustic)
TTITLE8=Can't Break It To My Heart
TTITLE9=If The Good Die Young
EXTD=
EXTT0=
EXTT1=
EXTT2=
EXTT3=
EXTT4=
EXTT5=
EXTT6=
EXTT7=
EXTT8=
EXTT9=
PLAYORDER=
